<svg width="250" height="150" fill="none" xmlns="http://www.w3.org/2000/svg"><path d="M80 2c19.963 0 38.055 8.014 51.233 21h-7.413C111.986 13.017 96.695 7 80 7 42.445 7 12 37.445 12 75s30.445 68 68 68c18.82 0 35.853-7.646 48.165-20H135c-13.382 15.321-33.06 25-55 25-40.317 0-73-32.683-73-73S39.683 2 80 2Z" fill="#BD2929"/><path d="M84.05 110.75c-3.7 0-7-.55-9.9-1.65-2.9-1.1-5.025-2.6-6.375-4.5-.35-.5-.525-1-.525-1.5 0-.8.4-1.5 1.2-2.1.3-.25.75-.375 1.35-.375.85 0 1.65.4 2.4 1.2 1.1 1.3 2.7 2.325 4.8 3.075 2.15.8 4.425 1.2 6.825 1.2 4.5 0 8.05-1.35 10.65-4.05 2.65-2.7 3.975-6.35 3.975-10.95V86c-1.55 2.05-3.525 3.625-5.925 4.725-2.4 1.05-5.05 1.575-7.95 1.575-6.1 0-10.875-1.725-14.325-5.175-3.4-3.5-5.1-8.35-5.1-14.55v-15.3c0-.75.275-1.375.825-1.875.55-.55 1.225-.825 2.025-.825.8 0 1.45.275 1.95.825.55.5.825 1.125.825 1.875v15.3c0 4.8 1.2 8.55 3.6 11.25 2.45 2.65 5.85 3.975 10.2 3.975 4.3 0 7.625-1.275 9.975-3.825 2.35-2.55 3.525-6.175 3.525-10.875V58.025c0-1.1.25-1.95.75-2.55.55-.65 1.3-.975 2.25-.975.9 0 1.6.325 2.1.975.55.6.825 1.45.825 2.55v32.7c0 3.95-.85 7.425-2.55 10.425-1.65 3.05-3.975 5.4-6.975 7.05-3 1.7-6.475 2.55-10.425 2.55Z" fill="#BD2929"/><path d="M127.923 92.75c-4.9 0-8.75-1.075-11.55-3.225-2.75-2.15-4.125-5.125-4.125-8.925 0-3.75 1.45-6.725 4.35-8.925 2.95-2.2 6.95-3.3 12-3.3 2.95 0 5.55.4 7.8 1.2 2.3.8 4.075 1.875 5.325 3.225V68c0-2.85-.95-5.025-2.85-6.525-1.85-1.5-4.575-2.25-8.175-2.25-4.65 0-8.675 1.1-12.075 3.3-.85.5-1.55.75-2.1.75-.5 0-1-.2-1.5-.6-.55-.45-.825-1.025-.825-1.725 0-.75.325-1.375.975-1.875 1.8-1.4 4.075-2.5 6.825-3.3 2.8-.85 5.65-1.275 8.55-1.275 5.3 0 9.4 1.2 12.3 3.6 2.95 2.4 4.425 5.775 4.425 10.125v21.6c0 1.95-.9 2.925-2.7 2.925-.8 0-1.45-.25-1.95-.75-.5-.55-.75-1.25-.75-2.1v-2.7c-3.1 3.7-7.75 5.55-13.95 5.55Zm.675-4.575c3.9 0 7.075-.725 9.525-2.175 2.45-1.5 3.675-3.425 3.675-5.775 0-2.35-1.15-4.15-3.45-5.4-2.25-1.3-5.45-1.95-9.6-1.95-3.5 0-6.2.675-8.1 2.025-1.9 1.3-2.85 3.2-2.85 5.7 0 2.45.925 4.325 2.775 5.625 1.85 1.3 4.525 1.95 8.025 1.95Zm31.588 4.575c-.85 0-1.525-.25-2.025-.75-.45-.55-.675-1.3-.675-2.25V57.5c0-.95.225-1.675.675-2.175.45-.55 1.125-.825 2.025-.825.85 0 1.5.275 1.95.825.5.5.75 1.225.75 2.175v4.425c1.85-2.45 4.075-4.3 6.675-5.55 2.65-1.25 5.55-1.875 8.7-1.875 4.75 0 8.4 1.325 10.95 3.975 2.6 2.65 3.9 6.45 3.9 11.4V89.75c0 .95-.25 1.7-.75 2.25-.5.5-1.175.75-2.025.75-.9 0-1.575-.25-2.025-.75-.45-.55-.675-1.3-.675-2.25V69.875c0-7.1-3.35-10.65-10.05-10.65-4.4 0-7.95 1.3-10.65 3.9-2.65 2.6-3.975 6.05-3.975 10.35V89.75c0 .9-.25 1.625-.75 2.175-.45.55-1.125.825-2.025.825Zm62.5 18.075c-3.6 0-6.85-.525-9.75-1.575-2.9-1.05-5.25-2.575-7.05-4.575-.4-.4-.6-.9-.6-1.5 0-.75.4-1.4 1.2-1.95.5-.35.975-.525 1.425-.525.75 0 1.5.4 2.25 1.2 1.2 1.3 2.8 2.35 4.8 3.15 2 .8 4.4 1.2 7.2 1.2 4.9 0 8.65-1.175 11.25-3.525 2.6-2.35 3.9-5.75 3.9-10.2v-7.05c-1.7 2.25-3.925 4.1-6.675 5.55-2.75 1.4-5.95 2.1-9.6 2.1-6.35 0-11.25-1.7-14.7-5.1-3.45-3.4-5.175-7.95-5.175-13.65 0-3.85.75-7.25 2.25-10.2 1.55-3 3.85-5.35 6.9-7.05 3.05-1.75 6.8-2.625 11.25-2.625 3.3 0 6.275.675 8.925 2.025 2.65 1.35 4.925 3.275 6.825 5.775v-4.95c0-.8.25-1.475.75-2.025.55-.55 1.225-.825 2.025-.825.8 0 1.45.275 1.95.825.5.5.75 1.175.75 2.025v35.175c0 3.75-.85 7-2.55 9.75-1.65 2.75-4 4.85-7.05 6.3-3.05 1.5-6.55 2.25-10.5 2.25Zm-1.125-22.575c2.7 0 5.225-.525 7.575-1.575 2.4-1.05 4.35-2.65 5.85-4.8 1.5-2.2 2.25-4.875 2.25-8.025 0-2.8-.6-5.3-1.8-7.5-1.2-2.2-2.95-3.925-5.25-5.175-2.3-1.3-5.05-1.95-8.25-1.95-4.85 0-8.6 1.325-11.25 3.975-2.65 2.6-3.975 6.325-3.975 11.175 0 4.3 1.25 7.7 3.75 10.2 2.55 2.45 6.25 3.675 11.1 3.675Zm-77.351 25.188V120h-1.676v-10.909h1.619v1.704h.142a3.115 3.115 0 0 1 1.165-1.335c.521-.341 1.193-.511 2.017-.511.739 0 1.385.151 1.939.454.554.299.985.753 1.293 1.364.308.606.461 1.373.461 2.301V120h-1.676v-6.818c0-.857-.222-1.525-.667-2.003-.445-.483-1.056-.724-1.833-.724-.535 0-1.013.116-1.434.348-.417.232-.746.57-.988 1.015-.241.445-.362.985-.362 1.62Zm14.597 6.789c-1.051 0-1.958-.232-2.72-.696-.758-.469-1.342-1.122-1.754-1.96-.407-.843-.611-1.823-.611-2.94 0-1.118.204-2.103.611-2.955.412-.857.985-1.524 1.718-2.003.739-.483 1.601-.724 2.586-.724.568 0 1.129.095 1.683.284a4.17 4.17 0 0 1 1.513.923c.454.422.817.98 1.086 1.676.27.696.405 1.553.405 2.571v.711h-8.409v-1.449h6.705c0-.616-.123-1.165-.37-1.648a2.775 2.775 0 0 0-1.037-1.143c-.445-.28-.97-.419-1.576-.419-.668 0-1.246.165-1.733.497a3.264 3.264 0 0 0-1.115 1.278 3.75 3.75 0 0 0-.391 1.69v.966c0 .824.142 1.523.426 2.096a3.07 3.07 0 0 0 1.201 1.299c.511.294 1.105.441 1.782.441.441 0 .838-.062 1.193-.185.36-.128.67-.317.931-.568.26-.256.461-.573.603-.952l1.62.455a3.586 3.586 0 0 1-.86 1.448 4.18 4.18 0 0 1-1.491.966c-.592.228-1.257.341-1.996.341Z" fill="#3E3E40"/><path fill="#BD2929" d="M169 113h74v3h-74z"/></svg>